# xmcd
# Track frame offsets:
# 150
# 15213
# 42799
# 61615
# 73540
# 98374
# 113758
# 130537
# 153847
# 168716
# 192067
# 207303
# 220007
# 240491
#
# Disc length: 3211 seconds
# Revision: 1
# Processed by: cddbd v1.5PL3 Copyright (c) Steve Scherf et al.
# Submitted via: VisiTrax 2.9.9.202 - For more info visit www.synapsa.com
#
DISCID=a20c890e
DTITLE=Post Office - Fables in Slang
DYEAR=2001
DGENRE=Indie
TTITLE0=Deliver My Letter
TTITLE1=Awake Again
TTITLE2=Fondly
TTITLE3=Over Here
TTITLE4=Semiprecious Stone
TTITLE5=Susan Faludi
TTITLE6=Brain Damage
TTITLE7=Anhedonia
TTITLE8=Going to Indiana
TTITLE9=End of the El
TTITLE10=Pillows
TTITLE11=Briefly
TTITLE12=More Dates for Kay
TTITLE13=????
EXTD=Spade Kitty Records\nentry by: timmyjoe42
EXTT0=
EXTT1=
EXTT2=
EXTT3=
EXTT4=
EXTT5=
EXTT6=
EXTT7=
EXTT8=
EXTT9=
EXTT10=
EXTT11=
EXTT12=
EXTT13=
PLAYORDER=
